<svg xmlns="http://www.w3.org/2000/svg" width="300" height="800">
    <g data-name="Group 70">
        <path data-name="Path 3" d="M-254.059 1165.777l229.291-868.98s45.315-25.657 134.917-15.176c101.793 12.269 119.507 12.121 296.696 92.186 100.966 44.846 196.769 1.297 275.561-17.76 55.598-13.445 113.116.253 113.116.253l-267.437 1019.052z" fill="#8B63CE" opacity=".67"/>
        <path data-name="Path 2" d="M-174.645 1206.449l113.573-644.107s17.642-107.192 27.83-157.831C102.235 246.982 257.758 493.503 431.526 524.143c173.769 30.64 137.328-175.663 350.689-72.728-5.441 26.152-23.955 134.9-30.412 172.473-12.52 72.855-27.902 167.864-46.057 261.2-44.095 226.717-81.503 462.226-81.503 462.226z" fill="#7e55be"/>
    </g>
</svg>
