<svg xmlns="http://www.w3.org/2000/svg" width="300" height="800">
    <g data-name="Group 70">
        <path data-name="Path 3" d="M-254.059 1165.777l229.291-868.98s45.315-25.657 134.917-15.176c101.793 12.269 119.507 12.121 296.696 92.186 100.966 44.846 196.769 1.297 275.561-17.76 55.598-13.445 113.116.253 113.116.253l-267.437 1019.052z" fill="#8B63CE" opacity=".67"/>
        <path data-name="Path 2" d="M-3 1267l0-654s-1-109 0-160C103 274 299 490 475 490c176 0 105-197 333-133-1 27 0 137 0 175 0 74 2 170 0 265-4 231 0 469 0 469z" fill="#7e55be"/>
    </g>
</svg>
