<?xml version="1.0" encoding="UTF-8" standalone="no"?>
<svg
   width="800"
   height="210"
   version="1.1"
   id="svg383"
   sodipodi:docname="text-bottom-1.svg"
   inkscape:version="1.1 (ce6663b3b7, 2021-05-25)"
   xmlns:inkscape="http://www.inkscape.org/namespaces/inkscape"
   xmlns:sodipodi="http://sodipodi.sourceforge.net/DTD/sodipodi-0.dtd"
   xmlns="http://www.w3.org/2000/svg"
   xmlns:svg="http://www.w3.org/2000/svg">
  <defs
     id="defs387" />
  <sodipodi:namedview
     id="namedview385"
     pagecolor="#505050"
     bordercolor="#ffffff"
     borderopacity="1"
     inkscape:pageshadow="0"
     inkscape:pageopacity="0"
     inkscape:pagecheckerboard="1"
     showgrid="false"
     inkscape:lockguides="false"
     showguides="true"
     inkscape:guide-bbox="true"
     inkscape:zoom="0.8625"
     inkscape:cx="266.08696"
     inkscape:cy="211.01449"
     inkscape:window-width="1640"
     inkscape:window-height="899"
     inkscape:window-x="0"
     inkscape:window-y="0"
     inkscape:window-maximized="1"
     inkscape:current-layer="svg383">
    <sodipodi:guide
       position="495.07246,411.5942"
       orientation="0,-1"
       id="guide1366" />
  </sodipodi:namedview>
  <g
     data-name="Group 70"
     id="g381"
     transform="matrix(0,-0.69208921,-1,0,800.82707,218.79969)">
    <path
       data-name="Path 3"
       d="M 9.7759128,-4.0760218 143.925,-4.642 c 0,0 36.511,37.13 49.578,126.392 14.495,101.5 19.223,118.572 -12.254,310.446 -17.186,109.133 49.675,190.4 88.475,261.575 27.377,50.224 29.032,109.32698 29.032,109.32698 l -288.597388,4.90716 z"
       fill="#8b63ce"
       opacity="0.67"
       id="path377"
       sodipodi:nodetypes="cccccccc" />
    <path
       data-name="Path 2"
       d="m 9.7759128,-4.0760218 v 0 L 59.519,-3.059 C 238.18,103.005 22.41,298.973 22.41,475.422 c 0,176.45 196.841,104.738 132.52,332.732 l -118.885705,-0.37789 -25.885683,0.22903 v 0 z"
       fill="#7e55be"
       id="path379"
       sodipodi:nodetypes="cccsccccc" />
  </g>
  <rect
     style="opacity:1;fill:#0000ff;fill-opacity:0;fill-rule:evenodd"
     id="rect1390"
     width="807.08795"
     height="309.57565"
     x="-254.67729"
     y="233.5748" />
</svg>
