<?xml version="1.0" encoding="UTF-8" standalone="no"?>
<svg
   width="300"
   height="800"
   version="1.1"
   id="svg747"
   sodipodi:docname="text-left.svg"
   inkscape:version="1.1 (ce6663b3b7, 2021-05-25)"
   xmlns:inkscape="http://www.inkscape.org/namespaces/inkscape"
   xmlns:sodipodi="http://sodipodi.sourceforge.net/DTD/sodipodi-0.dtd"
   xmlns="http://www.w3.org/2000/svg"
   xmlns:svg="http://www.w3.org/2000/svg">
  <defs
     id="defs751">
    <clipPath
       clipPathUnits="userSpaceOnUse"
       id="clipPath857">
      <rect
         style="fill:#0000ff;fill-rule:evenodd;stroke-width:1.00477"
         id="rect859"
         width="314.15884"
         height="831.29382"
         x="3.1766918"
         y="-8.9864492" />
    </clipPath>
  </defs>
  <sodipodi:namedview
     id="namedview749"
     pagecolor="#505050"
     bordercolor="#ffffff"
     borderopacity="1"
     inkscape:pageshadow="0"
     inkscape:pageopacity="0"
     inkscape:pagecheckerboard="1"
     showgrid="false"
     inkscape:zoom="0.83125"
     inkscape:cx="149.77444"
     inkscape:cy="399.3985"
     inkscape:window-width="1640"
     inkscape:window-height="899"
     inkscape:window-x="0"
     inkscape:window-y="0"
     inkscape:window-maximized="1"
     inkscape:current-layer="svg747" />
  <g
     data-name="Group 70"
     id="g745"
     clip-path="url(#clipPath857)"
     transform="matrix(0.71046922,0,0,1,-2.7127687,0)">
    <path
       data-name="Path 3"
       d="m -754.79,-1.212 898.715,-3.43 c 0,0 36.511,37.13 49.578,126.392 14.495,101.5 19.223,118.572 -12.254,310.446 -17.186,109.133 49.675,190.4 88.475,261.575 27.377,50.224 29.032,109.327 29.032,109.327 l -1053.546,5.426 z"
       fill="#8b63ce"
       opacity="0.67"
       id="path741" />
    <path
       data-name="Path 2"
       d="m -754.79,-3.059 h 654.043 c 0,0 108.627,-1.24 160.266,0 C 238.18,103.005 22.41,298.973 22.41,475.422 c 0,176.45 196.841,104.738 132.52,332.732 -26.7,-0.817 -137.01,-0.166 -175.134,0 -73.922,0.321 -170.159,1.671 -265.229,0 -230.93,-4.056 -469.357,0 -469.357,0 z"
       fill="#7e55be"
       id="path743" />
  </g>
</svg>
