<svg xmlns="http://www.w3.org/2000/svg" width="1053.546" height="813.618"><g data-name="Group 70"><path data-name="Path 3" d="M0 3.43L898.715 0s36.511 37.129 49.578 126.392c14.495 101.5 19.223 118.572-12.254 310.446-17.186 109.133 49.675 190.4 88.475 261.575 27.377 50.224 29.032 109.327 29.032 109.327L0 813.166z" fill="rgba(139,99,206,0.67)"/><path data-name="Path 2" d="M0 1.583h654.043s108.627-1.241 160.266 0C992.97 107.647 777.2 303.615 777.2 480.064s196.841 104.738 132.519 332.732c-26.7-.817-137.01-.166-175.133 0-73.922.321-170.159 1.671-265.229 0-230.93-4.056-469.357 0-469.357 0z" fill="#7e55be"/></g></svg>
