<svg xmlns="http://www.w3.org/2000/svg" width="300" height="800">
    <g data-name="Group 70">
        <path data-name="Path 3" d="M-754.79-1.212l898.715-3.43s36.511 37.13 49.578 126.392c14.495 101.5 19.223 118.572-12.254 310.446-17.186 109.133 49.675 190.4 88.475 261.575 27.377 50.224 29.032 109.327 29.032 109.327l-1053.546 5.426z" fill="#8B63CE" opacity=".67"/>
        <path data-name="Path 2" d="M-754.79-3.059h654.043s108.627-1.24 160.266 0C238.18 103.005 22.41 298.973 22.41 475.422c0 176.45 196.841 104.738 132.52 332.732-26.7-.817-137.01-.166-175.134 0-73.922.321-170.159 1.671-265.229 0-230.93-4.056-469.357 0-469.357 0z" fill="#7e55be"/>
    </g>
</svg>
